<svg xmlns="http://www.w3.org/2000/svg" width="212" height="212" viewBox="0 0 56.092 56.092"><defs><clipPath id="a" clipPathUnits="userSpaceOnUse"><path d="M-171.938 463.756h595.28v-841.89h-595.28Z"/></clipPath><clipPath id="b" clipPathUnits="userSpaceOnUse"><path d="M-236.011 443.993h595.28v-841.89h-595.28Z"/></clipPath><clipPath id="c" clipPathUnits="userSpaceOnUse"><path d="M-248.556 264.828h595.28v-841.89h-595.28Z"/></clipPath><clipPath id="d" clipPathUnits="userSpaceOnUse"><path d="M-430.348 449.492h595.28v-841.89h-595.28Z"/></clipPath><clipPath id="e" clipPathUnits="userSpaceOnUse"><path d="M-417.803 269.119h595.28v-841.89h-595.28Z"/></clipPath><clipPath id="f" clipPathUnits="userSpaceOnUse"><path d="M-147.285 533.67h595.28v-841.89h-595.28Z"/></clipPath><clipPath id="g" clipPathUnits="userSpaceOnUse"><path d="M-200.47 560.679h595.28v-841.89h-595.28Z"/></clipPath><clipPath id="h" clipPathUnits="userSpaceOnUse"><path d="M-219.643 566.2h595.28v-841.89h-595.28Z"/></clipPath><clipPath id="i" clipPathUnits="userSpaceOnUse"><path d="M-242.258 545.364h595.28v-841.89h-595.28Z"/></clipPath><clipPath id="j" clipPathUnits="userSpaceOnUse"><path d="M-270.93 561.926h595.28v-841.89h-595.28Z"/></clipPath><clipPath id="k" clipPathUnits="userSpaceOnUse"><path d="M-324.293 555.633h595.28v-841.89h-595.28Z"/></clipPath><clipPath id="l" clipPathUnits="userSpaceOnUse"><path d="M-336.58 533.67H258.7v-841.89h-595.28Z"/></clipPath><clipPath id="m" clipPathUnits="userSpaceOnUse"><path d="M-384.719 571.542h595.28v-841.89h-595.28Z"/></clipPath><clipPath id="n" clipPathUnits="userSpaceOnUse"><path d="M-419.919 571.542h595.28v-841.89h-595.28Z"/></clipPath><clipPath id="o" clipPathUnits="userSpaceOnUse"><path d="M0 841.89h595.28V0H0Z"/></clipPath></defs><path d="M0 0v145.021c-15.063.075-24.653-1.008-24.653-1.008v-171.11s84.413 9.62 146.834-30.264C70.263-6.985 0 0 0 0" clip-path="url(#a)" style="fill:#34a853;fill-opacity:1;fill-rule:nonzero;stroke:none" transform="matrix(.1646 0 0 -.1646 7.356 35.092)"/><path d="M0 0v145.639c-27.703 11.606-51.528 15.492-51.528 15.492V-9.979S28.533-23.004 65.818-72.897C54.855-40.224 0 0 0 0" clip-path="url(#b)" style="fill:#fbbc05;fill-opacity:1;fill-rule:nonzero;stroke:none" transform="matrix(.1646 0 0 -.1646 17.902 31.84)"/><path d="M0 0v-171.109s48.457-34.811 64.073-80.855v152.786C64.073-22.666 0 0 0 0" clip-path="url(#c)" style="fill:#ea4335;fill-opacity:1;fill-rule:nonzero;stroke:none" transform="matrix(.1646 0 0 -.1646 19.967 2.35)"/><path d="M0 0v132.255c15.063.074 17.647-1.389 17.647-1.389V-29.718S-59.47-17.361-107.956-71.625C-71.87-9.47 0 0 0 0" clip-path="url(#d)" style="fill:#34a853;fill-opacity:1;fill-rule:nonzero;stroke:none" transform="matrix(.1646 0 0 -.1646 49.888 32.744)"/><path d="M0 0v-170.961s-89.557-30.668-105.174-76.712v152.785C-105.174-18.375 0 0 0 0" clip-path="url(#e)" style="fill:#4285f4;fill-opacity:1;fill-rule:nonzero;stroke:none" transform="matrix(.1646 0 0 -.1646 47.823 3.057)"/><path d="M0 0h29.265v-6.411H7.421v-11.101h19.172v-6.053H7.421v-18.818H0Z" clip-path="url(#f)" style="fill:#000;fill-opacity:1;fill-rule:nonzero;stroke:none" transform="matrix(.1646 0 0 -.1646 3.299 46.6)"/><path d="M0 0c-1.029-.674-2.295-1.078-3.798-1.217a50.566 50.566 0 0 1-4.512-.624 14.272 14.272 0 0 1-2.077-.505 6.252 6.252 0 0 1-1.781-.888 3.928 3.928 0 0 1-1.217-1.485c-.297-.614-.445-1.355-.445-2.226 0-.751.217-1.386.653-1.9.434-.513.959-.92 1.573-1.217a7.343 7.343 0 0 1 2.017-.624 12.623 12.623 0 0 1 1.989-.177c.752 0 1.563.098 2.434.297A8.12 8.12 0 0 1-2.7-9.558 6.48 6.48 0 0 1-.772-7.746C-.258-7.015 0-6.114 0-5.045Zm6.767-8.548c0-.831.109-1.425.326-1.781.218-.357.644-.534 1.277-.534h.712c.276 0 .594.039.95.119v-4.69a20.869 20.869 0 0 0-2.078-.534 13.13 13.13 0 0 0-1.187-.178 10.583 10.583 0 0 0-1.008-.059c-1.386 0-2.534.278-3.444.831-.91.554-1.504 1.523-1.781 2.909-1.345-1.306-2.996-2.256-4.956-2.849-1.959-.594-3.849-.891-5.668-.891-1.386 0-2.712.188-3.978.563-1.266.376-2.384.93-3.354 1.663a7.945 7.945 0 0 0-2.314 2.79c-.575 1.127-.861 2.443-.861 3.947 0 1.9.346 3.443 1.039 4.63.691 1.187 1.601 2.117 2.73 2.79 1.128.672 2.393 1.158 3.799 1.455a44.25 44.25 0 0 0 4.244.682c1.226.238 2.395.405 3.502.505 1.108.098 2.088.267 2.939.504.85.238 1.522.604 2.017 1.099.495.494.743 1.236.743 2.224 0 .871-.208 1.583-.624 2.138-.416.553-.93.98-1.542 1.277a6.712 6.712 0 0 1-2.048.593c-.753.099-1.466.149-2.138.149-1.899 0-3.463-.397-4.689-1.188-1.227-.792-1.919-2.018-2.077-3.68h-6.767c.119 1.979.594 3.621 1.424 4.927a9.844 9.844 0 0 0 3.176 3.145c1.286.792 2.74 1.346 4.364 1.663 1.621.316 3.284.475 4.985.475a21.04 21.04 0 0 0 4.451-.475c1.465-.317 2.781-.832 3.948-1.544a8.537 8.537 0 0 0 2.82-2.76c.713-1.128 1.068-2.503 1.068-4.126z" clip-path="url(#g)" style="fill:#000;fill-opacity:1;fill-rule:nonzero;stroke:none" transform="matrix(.1646 0 0 -.1646 12.052 51.045)"/><path d="M0 0c.197-1.979.95-3.363 2.256-4.155 1.306-.792 2.869-1.188 4.689-1.188.633 0 1.354.05 2.167.149a9.383 9.383 0 0 1 2.285.564c.713.276 1.296.683 1.75 1.217.455.534.663 1.237.624 2.107-.039.87-.356 1.583-.95 2.138-.594.553-1.356.998-2.284 1.335a22.34 22.34 0 0 1-3.177.859c-1.187.239-2.395.496-3.62.773A33.63 33.63 0 0 0 .089 4.808a11.736 11.736 0 0 0-3.147 1.603 7.381 7.381 0 0 0-2.224 2.582c-.555 1.047-.832 2.344-.832 3.888 0 1.662.405 3.057 1.218 4.185a9.287 9.287 0 0 0 3.085 2.73c1.247.692 2.631 1.178 4.156 1.454 1.522.277 2.977.416 4.363.416 1.582 0 3.096-.169 4.541-.505 1.444-.336 2.75-.881 3.917-1.633a9.581 9.581 0 0 0 2.909-2.937c.772-1.207 1.256-2.662 1.455-4.363h-7.065c-.318 1.623-1.059 2.71-2.225 3.265-1.169.553-2.505.831-4.008.831-.475 0-1.039-.041-1.691-.119a7.764 7.764 0 0 1-1.84-.445 3.876 3.876 0 0 1-1.454-.949c-.397-.416-.594-.96-.594-1.633 0-.831.286-1.505.861-2.019.573-.514 1.325-.94 2.256-1.275.928-.337 1.987-.623 3.175-.861 1.187-.238 2.414-.495 3.68-.772a37.672 37.672 0 0 0 3.621-1.009 11.725 11.725 0 0 0 3.176-1.603 7.805 7.805 0 0 0 2.256-2.553c.572-1.029.86-2.295.86-3.798 0-1.82-.415-3.364-1.246-4.631a9.87 9.87 0 0 0-3.235-3.086c-1.327-.792-2.8-1.365-4.422-1.721a22.335 22.335 0 0 0-4.809-.535c-1.939 0-3.731.219-5.371.654-1.644.434-3.067 1.097-4.275 1.988A9.566 9.566 0 0 0-5.668-4.72C-6.362-3.393-6.728-1.821-6.767 0z" clip-path="url(#h)" style="fill:#000;fill-opacity:1;fill-rule:nonzero;stroke:none" transform="matrix(.1646 0 0 -.1646 15.208 51.953)"/><path d="M0 0h5.104v9.2h6.769V0h6.113v-5.045h-6.113v-16.384c0-.712.029-1.326.088-1.84s.198-.95.415-1.306c.217-.356.543-.623.979-.801.436-.179 1.03-.268 1.782-.268.474 0 .949.01 1.425.031.474.019.949.089 1.424.207v-5.223c-.753-.078-1.484-.158-2.196-.237a20.198 20.198 0 0 0-2.197-.119c-1.78 0-3.216.169-4.303.505-1.089.335-1.94.831-2.553 1.484-.614.652-1.029 1.473-1.247 2.464-.217.987-.346 2.115-.386 3.382v18.105H0Z" clip-path="url(#i)" style="fill:#000;fill-opacity:1;fill-rule:nonzero;stroke:none" transform="matrix(.1646 0 0 -.1646 18.93 48.524)"/><path d="M0 0c0-1.623.276-3.008.831-4.154a7.489 7.489 0 0 1 2.314-2.821c.989-.732 2.128-1.266 3.414-1.602 1.286-.336 2.681-.505 4.185-.505 1.622 0 3.006.187 4.154.564 1.147.376 2.079.861 2.791 1.455.712.593 1.225 1.276 1.543 2.047.316.773.476 1.554.476 2.346 0 1.622-.368 2.818-1.099 3.59-.733.772-1.534 1.316-2.404 1.633-1.505.553-3.256 1.078-5.253 1.573-2 .494-4.462 1.138-7.391 1.93C1.74 6.53.227 7.152-.98 7.925c-1.208.771-2.166 1.633-2.879 2.582a9.038 9.038 0 0 0-1.513 3.028 12.172 12.172 0 0 0-.445 3.264c0 2.138.445 3.987 1.335 5.551A11.886 11.886 0 0 0-.95 26.237c1.464 1.029 3.125 1.79 4.986 2.285 1.86.495 3.74.743 5.64.743 2.215 0 4.303-.287 6.262-.861 1.959-.575 3.681-1.434 5.164-2.583a12.685 12.685 0 0 0 3.532-4.243c.87-1.682 1.306-3.631 1.306-5.848h-7.42c-.198 2.731-1.128 4.661-2.79 5.789-1.663 1.127-3.779 1.692-6.351 1.692-.872 0-1.762-.09-2.672-.268a8.424 8.424 0 0 1-2.493-.89 5.46 5.46 0 0 1-1.869-1.692c-.495-.713-.742-1.603-.742-2.672 0-1.504.464-2.681 1.395-3.531.928-.851 2.145-1.495 3.65-1.929.158-.041.781-.208 1.87-.505 1.087-.296 2.304-.623 3.649-.98 1.346-.355 2.663-.702 3.949-1.038 1.285-.337 2.206-.585 2.76-.742 1.385-.437 2.591-1.03 3.621-1.781a11.514 11.514 0 0 0 2.582-2.581 10.745 10.745 0 0 0 1.544-3.118 11.43 11.43 0 0 0 .504-3.323c0-2.375-.485-4.404-1.454-6.085a12.353 12.353 0 0 0-3.83-4.125c-1.582-1.068-3.382-1.851-5.401-2.346a25.92 25.92 0 0 0-6.173-.741c-2.415 0-4.69.297-6.827.89-2.136.594-3.997 1.504-5.58 2.731-1.582 1.226-2.849 2.799-3.798 4.719C-6.886-4.878-7.381-2.61-7.42 0Z" clip-path="url(#j)" style="fill:#000;fill-opacity:1;fill-rule:nonzero;stroke:none" transform="matrix(.1646 0 0 -.1646 23.65 51.25)"/><path d="M0 0c-.277 1.898-1.039 3.333-2.286 4.303-1.245.968-2.818 1.455-4.719 1.455-.871 0-1.801-.149-2.79-.446-.989-.296-1.899-.851-2.729-1.662-.831-.811-1.525-1.939-2.079-3.382-.554-1.446-.831-3.336-.831-5.67 0-1.267.149-2.533.446-3.798.297-1.268.771-2.396 1.425-3.385a7.73 7.73 0 0 1 2.521-2.404c1.03-.614 2.276-.92 3.74-.92 1.979 0 3.612.614 4.897 1.841C-1.119-12.842-.317-11.12 0-8.903h6.767c-.633-3.998-2.148-7.056-4.541-9.172-2.395-2.118-5.572-3.176-9.528-3.176-2.414 0-4.54.406-6.381 1.217-1.839.811-3.393 1.919-4.66 3.325-1.266 1.403-2.224 3.076-2.878 5.015-.653 1.939-.979 4.036-.979 6.292 0 2.295.315 4.453.95 6.469.631 2.019 1.581 3.771 2.848 5.254 1.267 1.485 2.839 2.651 4.719 3.502 1.879.852 4.086 1.277 6.619 1.277a18.53 18.53 0 0 0 5.075-.683c1.602-.455 3.027-1.138 4.274-2.047a10.934 10.934 0 0 0 3.057-3.443C6.134 3.541 6.608 1.898 6.767 0Z" clip-path="url(#k)" style="fill:#000;fill-opacity:1;fill-rule:nonzero;stroke:none" transform="matrix(.1646 0 0 -.1646 32.433 50.214)"/><path d="M0 0h6.767v-15.73h.119c.831 1.384 2.067 2.542 3.709 3.471 1.642.93 3.473 1.396 5.492 1.396 3.362 0 6.014-.87 7.954-2.612 1.938-1.741 2.907-4.353 2.907-7.836v-21.072h-6.766v19.292c-.079 2.413-.594 4.164-1.544 5.253-.95 1.088-2.433 1.633-4.451 1.633-1.149 0-2.176-.208-3.087-.623a6.687 6.687 0 0 1-2.315-1.722 8.07 8.07 0 0 1-1.483-2.583 9.19 9.19 0 0 1-.535-3.145v-18.105H0Z" clip-path="url(#l)" style="fill:#000;fill-opacity:1;fill-rule:nonzero;stroke:none" transform="matrix(.1646 0 0 -.1646 34.455 46.6)"/><path d="M0 0c1.503 0 2.81.317 3.917.95a8.252 8.252 0 0 1 2.731 2.493 10.92 10.92 0 0 1 1.574 3.473 15.546 15.546 0 0 1 0 7.865c-.338 1.307-.862 2.463-1.574 3.472a8.385 8.385 0 0 1-2.731 2.464c-1.107.633-2.414.95-3.917.95-1.504 0-2.811-.317-3.918-.95a8.378 8.378 0 0 1-2.729-2.464c-.713-1.009-1.238-2.165-1.574-3.472a15.574 15.574 0 0 1 0-7.865 10.854 10.854 0 0 1 1.574-3.473A8.245 8.245 0 0 1-3.918.95C-2.811.317-1.504 0 0 0m0-5.342c-2.454 0-4.64.406-6.559 1.217-1.92.812-3.542 1.93-4.868 3.354-1.326 1.424-2.336 3.125-3.026 5.105-.693 1.978-1.039 4.154-1.039 6.529 0 2.334.346 4.491 1.039 6.47.69 1.979 1.7 3.681 3.026 5.105 1.326 1.425 2.948 2.542 4.868 3.354 1.919.811 4.105 1.217 6.559 1.217 2.453 0 4.639-.406 6.56-1.217 1.918-.812 3.541-1.929 4.868-3.354 1.324-1.424 2.334-3.126 3.026-5.105.692-1.979 1.039-4.136 1.039-6.47 0-2.375-.347-4.551-1.039-6.529-.692-1.98-1.702-3.681-3.026-5.105-1.327-1.424-2.95-2.542-4.868-3.354C4.639-4.936 2.453-5.342 0-5.342" clip-path="url(#m)" style="fill:#000;fill-opacity:1;fill-rule:nonzero;stroke:none" transform="matrix(.1646 0 0 -.1646 42.378 52.833)"/><path d="M0 0c1.503 0 2.81.317 3.917.95a8.252 8.252 0 0 1 2.731 2.493 10.92 10.92 0 0 1 1.574 3.473 15.546 15.546 0 0 1 0 7.865c-.338 1.307-.862 2.463-1.574 3.472a8.385 8.385 0 0 1-2.731 2.464c-1.107.633-2.414.95-3.917.95-1.504 0-2.811-.317-3.918-.95a8.378 8.378 0 0 1-2.729-2.464c-.713-1.009-1.238-2.165-1.574-3.472a15.574 15.574 0 0 1 0-7.865 10.854 10.854 0 0 1 1.574-3.473A8.245 8.245 0 0 1-3.918.95C-2.811.317-1.504 0 0 0m0-5.342c-2.454 0-4.64.406-6.559 1.217-1.92.812-3.542 1.93-4.868 3.354-1.326 1.424-2.336 3.125-3.026 5.105-.693 1.978-1.039 4.154-1.039 6.529 0 2.334.346 4.491 1.039 6.47.69 1.979 1.7 3.681 3.026 5.105 1.326 1.425 2.948 2.542 4.868 3.354 1.919.811 4.105 1.217 6.559 1.217 2.453 0 4.639-.406 6.56-1.217 1.918-.812 3.541-1.929 4.868-3.354 1.324-1.424 2.334-3.126 3.026-5.105.692-1.979 1.039-4.136 1.039-6.47 0-2.375-.347-4.551-1.039-6.529-.692-1.98-1.702-3.681-3.026-5.105-1.327-1.424-2.95-2.542-4.868-3.354C4.639-4.936 2.453-5.342 0-5.342" clip-path="url(#n)" style="fill:#000;fill-opacity:1;fill-rule:nonzero;stroke:none" transform="matrix(.1646 0 0 -.1646 48.172 52.833)"/><path d="M441.229 308.22h6.767v-42.383h-6.767z" clip-path="url(#o)" style="fill:#000;fill-opacity:1;fill-rule:nonzero;stroke:none" transform="matrix(.1646 0 0 -.1646 -20.943 97.33)"/></svg>
